<svg xmlns="http://www.w3.org/2000/svg" xmlns:xlink="http://www.w3.org/1999/xlink" width="227" zoomAndPan="magnify" viewBox="0 0 170.25 68.999997" height="92" preserveAspectRatio="xMidYMid meet" version="1.0"><defs><g/></defs><g fill="#d9d9d9" fill-opacity="1"><g transform="translate(31.855473, 43.727944)"><g><path d="M 11.75 -13.5 C 10.570312 -13.5 9.554688 -13.0625 8.703125 -12.1875 C 7.859375 -11.320312 7.4375 -10.28125 7.4375 -9.0625 C 7.4375 -7.8125 7.859375 -6.75 8.703125 -5.875 C 9.554688 -5.007812 10.570312 -4.578125 11.75 -4.578125 C 12.3125 -4.578125 12.84375 -4.644531 13.34375 -4.78125 C 13.851562 -4.925781 14.222656 -5.070312 14.453125 -5.21875 L 14.78125 -5.4375 L 16.890625 -1.09375 C 16.722656 -0.976562 16.492188 -0.832031 16.203125 -0.65625 C 15.910156 -0.476562 15.238281 -0.238281 14.1875 0.0625 C 13.144531 0.375 12.023438 0.53125 10.828125 0.53125 C 8.171875 0.53125 5.835938 -0.398438 3.828125 -2.265625 C 1.816406 -4.140625 0.8125 -6.382812 0.8125 -9 C 0.8125 -11.625 1.816406 -13.882812 3.828125 -15.78125 C 5.835938 -17.675781 8.171875 -18.625 10.828125 -18.625 C 12.023438 -18.625 13.128906 -18.484375 14.140625 -18.203125 C 15.148438 -17.921875 15.867188 -17.632812 16.296875 -17.34375 L 16.890625 -16.921875 L 14.78125 -12.65625 C 14 -13.21875 12.988281 -13.5 11.75 -13.5 Z M 11.75 -13.5 "/></g></g></g><g fill="#d9d9d9" fill-opacity="1"><g transform="translate(45.85246, 43.727944)"><g><path d="M 2.109375 0 L 2.109375 -30.328125 L 8.359375 -30.328125 L 8.359375 -16.1875 L 8.421875 -16.1875 C 10.046875 -17.8125 11.773438 -18.625 13.609375 -18.625 C 14.503906 -18.625 15.390625 -18.503906 16.265625 -18.265625 C 17.148438 -18.035156 18 -17.671875 18.8125 -17.171875 C 19.625 -16.679688 20.28125 -15.984375 20.78125 -15.078125 C 21.289062 -14.171875 21.546875 -13.117188 21.546875 -11.921875 L 21.546875 0 L 15.3125 0 L 15.3125 -10.234375 C 15.3125 -11.171875 15.007812 -11.988281 14.40625 -12.6875 C 13.800781 -13.394531 13.019531 -13.75 12.0625 -13.75 C 11.125 -13.75 10.269531 -13.382812 9.5 -12.65625 C 8.738281 -11.925781 8.359375 -11.117188 8.359375 -10.234375 L 8.359375 0 Z M 2.109375 0 "/></g></g></g><g fill="#d9d9d9" fill-opacity="1"><g transform="translate(65.843532, 43.727944)"><g><path d="M 3.34375 -2.234375 C 1.65625 -4.078125 0.8125 -6.335938 0.8125 -9.015625 C 0.8125 -11.703125 1.65625 -13.972656 3.34375 -15.828125 C 5.039062 -17.691406 7.191406 -18.625 9.796875 -18.625 C 12.203125 -18.625 14.179688 -17.867188 15.734375 -16.359375 L 15.734375 -18.09375 L 21.96875 -18.09375 L 21.96875 0 L 15.796875 0 L 15.796875 -2.046875 L 15.734375 -2.046875 C 14.179688 -0.328125 12.203125 0.53125 9.796875 0.53125 C 7.191406 0.53125 5.039062 -0.390625 3.34375 -2.234375 Z M 8.65625 -12.09375 C 7.84375 -11.289062 7.4375 -10.265625 7.4375 -9.015625 C 7.4375 -7.773438 7.820312 -6.757812 8.59375 -5.96875 C 9.375 -5.1875 10.398438 -4.796875 11.671875 -4.796875 C 12.890625 -4.796875 13.894531 -5.191406 14.6875 -5.984375 C 15.476562 -6.785156 15.875 -7.800781 15.875 -9.03125 C 15.875 -10.269531 15.46875 -11.289062 14.65625 -12.09375 C 13.84375 -12.894531 12.847656 -13.296875 11.671875 -13.296875 C 10.472656 -13.296875 9.46875 -12.894531 8.65625 -12.09375 Z M 8.65625 -12.09375 "/></g></g></g><g fill="#d9d9d9" fill-opacity="1"><g transform="translate(86.61031, 43.727944)"><g><path d="M 9.984375 -18.625 C 11.015625 -18.625 12.035156 -18.503906 13.046875 -18.265625 C 14.054688 -18.035156 14.8125 -17.800781 15.3125 -17.5625 L 16.046875 -17.203125 L 14 -13.125 C 12.59375 -13.875 11.253906 -14.25 9.984375 -14.25 C 9.273438 -14.25 8.773438 -14.171875 8.484375 -14.015625 C 8.191406 -13.859375 8.046875 -13.570312 8.046875 -13.15625 C 8.046875 -13.0625 8.054688 -12.96875 8.078125 -12.875 C 8.097656 -12.78125 8.144531 -12.691406 8.21875 -12.609375 C 8.289062 -12.523438 8.351562 -12.453125 8.40625 -12.390625 C 8.46875 -12.335938 8.566406 -12.273438 8.703125 -12.203125 C 8.847656 -12.128906 8.960938 -12.070312 9.046875 -12.03125 C 9.128906 -12 9.265625 -11.945312 9.453125 -11.875 C 9.640625 -11.8125 9.78125 -11.757812 9.875 -11.71875 C 9.96875 -11.6875 10.125 -11.632812 10.34375 -11.5625 C 10.570312 -11.5 10.742188 -11.453125 10.859375 -11.421875 C 11.585938 -11.210938 12.222656 -10.976562 12.765625 -10.71875 C 13.304688 -10.457031 13.875 -10.101562 14.46875 -9.65625 C 15.070312 -9.21875 15.535156 -8.65625 15.859375 -7.96875 C 16.191406 -7.289062 16.359375 -6.515625 16.359375 -5.640625 C 16.359375 -1.523438 13.503906 0.53125 7.796875 0.53125 C 6.503906 0.53125 5.273438 0.332031 4.109375 -0.0625 C 2.941406 -0.46875 2.101562 -0.867188 1.59375 -1.265625 L 0.8125 -1.90625 L 3.34375 -6.171875 C 3.53125 -6.003906 3.773438 -5.804688 4.078125 -5.578125 C 4.390625 -5.359375 4.945312 -5.054688 5.75 -4.671875 C 6.550781 -4.285156 7.242188 -4.09375 7.828125 -4.09375 C 9.117188 -4.09375 9.765625 -4.523438 9.765625 -5.390625 C 9.765625 -5.796875 9.597656 -6.109375 9.265625 -6.328125 C 8.941406 -6.554688 8.382812 -6.8125 7.59375 -7.09375 C 6.8125 -7.375 6.195312 -7.628906 5.75 -7.859375 C 4.625 -8.453125 3.726562 -9.117188 3.0625 -9.859375 C 2.40625 -10.597656 2.078125 -11.578125 2.078125 -12.796875 C 2.078125 -14.628906 2.785156 -16.054688 4.203125 -17.078125 C 5.628906 -18.109375 7.554688 -18.625 9.984375 -18.625 Z M 9.984375 -18.625 "/></g></g></g><g fill="#d9d9d9" fill-opacity="1"><g transform="translate(100.642557, 43.727944)"><g><path d="M 20.421875 -8.1875 L 7.296875 -8.1875 C 7.296875 -6.914062 7.707031 -5.972656 8.53125 -5.359375 C 9.351562 -4.742188 10.25 -4.4375 11.21875 -4.4375 C 12.226562 -4.4375 13.023438 -4.570312 13.609375 -4.84375 C 14.203125 -5.113281 14.875 -5.648438 15.625 -6.453125 L 20.140625 -4.203125 C 18.253906 -1.046875 15.125 0.53125 10.75 0.53125 C 8.03125 0.53125 5.691406 -0.398438 3.734375 -2.265625 C 1.785156 -4.140625 0.8125 -6.394531 0.8125 -9.03125 C 0.8125 -11.664062 1.785156 -13.921875 3.734375 -15.796875 C 5.691406 -17.679688 8.03125 -18.625 10.75 -18.625 C 13.625 -18.625 15.957031 -17.789062 17.75 -16.125 C 19.550781 -14.46875 20.453125 -12.101562 20.453125 -9.03125 C 20.453125 -8.601562 20.441406 -8.320312 20.421875 -8.1875 Z M 7.46875 -11.640625 L 14.359375 -11.640625 C 14.210938 -12.578125 13.835938 -13.296875 13.234375 -13.796875 C 12.640625 -14.304688 11.875 -14.5625 10.9375 -14.5625 C 9.894531 -14.5625 9.066406 -14.289062 8.453125 -13.75 C 7.847656 -13.207031 7.519531 -12.503906 7.46875 -11.640625 Z M 7.46875 -11.640625 "/></g></g></g><g fill="#d9d9d9" fill-opacity="1"><g transform="translate(118.588582, 43.727944)"><g/></g></g><g fill="#d9d9d9" fill-opacity="1"><g transform="translate(124.899034, 43.727944)"><g><path d="M 6.140625 -7.546875 C 7.265625 -7.546875 8.21875 -7.148438 9 -6.359375 C 9.789062 -5.578125 10.1875 -4.617188 10.1875 -3.484375 C 10.1875 -2.378906 9.789062 -1.429688 9 -0.640625 C 8.21875 0.140625 7.265625 0.53125 6.140625 0.53125 C 5.035156 0.53125 4.085938 0.140625 3.296875 -0.640625 C 2.503906 -1.429688 2.109375 -2.378906 2.109375 -3.484375 C 2.109375 -4.617188 2.503906 -5.578125 3.296875 -6.359375 C 4.085938 -7.148438 5.035156 -7.546875 6.140625 -7.546875 Z M 6.140625 -7.546875 "/></g></g></g><g fill="#d9d9d9" fill-opacity="1"><g transform="translate(59.617654, 53.283814)"><g><path d="M 2.09375 -4.640625 C 1.9375 -4.640625 1.820312 -4.59375 1.75 -4.5 C 1.675781 -4.40625 1.640625 -4.289062 1.640625 -4.15625 L 1.640625 -3.65625 L 2.34375 -3.65625 C 2.4375 -3.65625 2.507812 -3.625 2.5625 -3.5625 C 2.625 -3.5 2.65625 -3.425781 2.65625 -3.34375 C 2.65625 -3.25 2.625 -3.171875 2.5625 -3.109375 C 2.507812 -3.054688 2.4375 -3.03125 2.34375 -3.03125 L 1.640625 -3.03125 L 1.640625 -0.34375 C 1.640625 -0.25 1.609375 -0.164062 1.546875 -0.09375 C 1.484375 -0.03125 1.398438 0 1.296875 0 C 1.203125 0 1.125 -0.03125 1.0625 -0.09375 C 1 -0.164062 0.96875 -0.25 0.96875 -0.34375 L 0.96875 -3.03125 L 0.53125 -3.03125 C 0.4375 -3.03125 0.359375 -3.054688 0.296875 -3.109375 C 0.234375 -3.171875 0.203125 -3.25 0.203125 -3.34375 C 0.203125 -3.425781 0.234375 -3.5 0.296875 -3.5625 C 0.359375 -3.625 0.4375 -3.65625 0.53125 -3.65625 L 0.96875 -3.65625 L 0.96875 -4.15625 C 0.96875 -4.476562 1.070312 -4.738281 1.28125 -4.9375 C 1.5 -5.132812 1.800781 -5.234375 2.1875 -5.234375 C 2.34375 -5.234375 2.484375 -5.203125 2.609375 -5.140625 C 2.734375 -5.085938 2.796875 -5 2.796875 -4.875 C 2.796875 -4.789062 2.765625 -4.71875 2.703125 -4.65625 C 2.648438 -4.59375 2.585938 -4.5625 2.515625 -4.5625 C 2.492188 -4.5625 2.441406 -4.570312 2.359375 -4.59375 C 2.253906 -4.625 2.164062 -4.640625 2.09375 -4.640625 Z M 2.09375 -4.640625 "/></g></g></g><g fill="#d9d9d9" fill-opacity="1"><g transform="translate(67.012255, 53.283814)"><g><path d="M 1.140625 -0.34375 C 1.140625 -0.25 1.109375 -0.164062 1.046875 -0.09375 C 0.984375 -0.03125 0.898438 0 0.796875 0 C 0.703125 0 0.625 -0.03125 0.5625 -0.09375 C 0.5 -0.164062 0.46875 -0.25 0.46875 -0.34375 L 0.46875 -3.40625 C 0.46875 -3.5 0.5 -3.578125 0.5625 -3.640625 C 0.625 -3.710938 0.703125 -3.75 0.796875 -3.75 C 0.898438 -3.75 0.984375 -3.710938 1.046875 -3.640625 C 1.109375 -3.578125 1.140625 -3.5 1.140625 -3.40625 Z M 0.8125 -4.21875 C 0.675781 -4.21875 0.578125 -4.242188 0.515625 -4.296875 C 0.453125 -4.347656 0.421875 -4.425781 0.421875 -4.53125 L 0.421875 -4.640625 C 0.421875 -4.753906 0.453125 -4.832031 0.515625 -4.875 C 0.585938 -4.925781 0.6875 -4.953125 0.8125 -4.953125 C 0.945312 -4.953125 1.039062 -4.925781 1.09375 -4.875 C 1.15625 -4.832031 1.1875 -4.753906 1.1875 -4.640625 L 1.1875 -4.53125 C 1.1875 -4.414062 1.15625 -4.332031 1.09375 -4.28125 C 1.03125 -4.238281 0.9375 -4.21875 0.8125 -4.21875 Z M 0.8125 -4.21875 "/></g></g></g><g fill="#d9d9d9" fill-opacity="1"><g transform="translate(73.250559, 53.283814)"><g><path d="M 1.515625 -3.0625 L 1.515625 -0.9375 C 1.515625 -0.707031 1.617188 -0.59375 1.828125 -0.59375 C 1.859375 -0.59375 1.898438 -0.597656 1.953125 -0.609375 C 2.015625 -0.628906 2.0625 -0.640625 2.09375 -0.640625 C 2.15625 -0.640625 2.207031 -0.613281 2.25 -0.5625 C 2.289062 -0.507812 2.3125 -0.441406 2.3125 -0.359375 C 2.3125 -0.265625 2.253906 -0.179688 2.140625 -0.109375 C 2.035156 -0.0351562 1.910156 0 1.765625 0 C 1.609375 0 1.460938 -0.015625 1.328125 -0.046875 C 1.203125 -0.078125 1.085938 -0.160156 0.984375 -0.296875 C 0.890625 -0.429688 0.84375 -0.640625 0.84375 -0.921875 L 0.84375 -3.0625 L 0.421875 -3.0625 C 0.335938 -3.0625 0.265625 -3.085938 0.203125 -3.140625 C 0.140625 -3.203125 0.109375 -3.28125 0.109375 -3.375 C 0.109375 -3.457031 0.140625 -3.523438 0.203125 -3.578125 C 0.265625 -3.640625 0.335938 -3.671875 0.421875 -3.671875 L 0.84375 -3.671875 L 0.84375 -4.265625 C 0.84375 -4.359375 0.875 -4.4375 0.9375 -4.5 C 1 -4.570312 1.078125 -4.609375 1.171875 -4.609375 C 1.265625 -4.609375 1.34375 -4.570312 1.40625 -4.5 C 1.476562 -4.4375 1.515625 -4.359375 1.515625 -4.265625 L 1.515625 -3.671875 L 2.09375 -3.671875 C 2.1875 -3.671875 2.257812 -3.640625 2.3125 -3.578125 C 2.375 -3.523438 2.40625 -3.453125 2.40625 -3.359375 C 2.40625 -3.273438 2.375 -3.203125 2.3125 -3.140625 C 2.257812 -3.085938 2.1875 -3.0625 2.09375 -3.0625 Z M 1.515625 -3.0625 "/></g></g></g><g fill="#d9d9d9" fill-opacity="1"><g transform="translate(80.574221, 53.283814)"><g><path d="M 2.390625 -3.796875 C 3.242188 -3.796875 3.671875 -3.285156 3.671875 -2.265625 L 3.671875 -0.34375 C 3.671875 -0.25 3.640625 -0.164062 3.578125 -0.09375 C 3.515625 -0.03125 3.429688 0 3.328125 0 C 3.234375 0 3.15625 -0.03125 3.09375 -0.09375 C 3.03125 -0.164062 3 -0.25 3 -0.34375 L 3 -2.265625 C 3 -2.546875 2.9375 -2.765625 2.8125 -2.921875 C 2.6875 -3.085938 2.476562 -3.171875 2.1875 -3.171875 C 2 -3.171875 1.828125 -3.128906 1.671875 -3.046875 C 1.515625 -2.960938 1.390625 -2.851562 1.296875 -2.71875 C 1.210938 -2.582031 1.171875 -2.429688 1.171875 -2.265625 L 1.171875 -0.34375 C 1.171875 -0.25 1.140625 -0.164062 1.078125 -0.09375 C 1.015625 -0.03125 0.9375 0 0.84375 0 C 0.738281 0 0.65625 -0.03125 0.59375 -0.09375 C 0.53125 -0.15625 0.5 -0.238281 0.5 -0.34375 L 0.5 -3.375 C 0.5 -3.46875 0.53125 -3.546875 0.59375 -3.609375 C 0.65625 -3.679688 0.738281 -3.71875 0.84375 -3.71875 C 0.9375 -3.71875 1.015625 -3.679688 1.078125 -3.609375 C 1.140625 -3.546875 1.171875 -3.46875 1.171875 -3.375 L 1.171875 -3.125 C 1.296875 -3.3125 1.46875 -3.46875 1.6875 -3.59375 C 1.90625 -3.726562 2.140625 -3.796875 2.390625 -3.796875 Z M 2.390625 -3.796875 "/></g></g></g><g fill="#d9d9d9" fill-opacity="1"><g transform="translate(89.380484, 53.283814)"><g><path d="M 3.765625 -2 C 3.765625 -1.914062 3.726562 -1.84375 3.65625 -1.78125 C 3.59375 -1.726562 3.515625 -1.703125 3.421875 -1.703125 L 0.921875 -1.703125 C 0.960938 -1.347656 1.097656 -1.066406 1.328125 -0.859375 C 1.554688 -0.648438 1.832031 -0.546875 2.15625 -0.546875 C 2.382812 -0.546875 2.566406 -0.578125 2.703125 -0.640625 C 2.847656 -0.710938 2.976562 -0.800781 3.09375 -0.90625 C 3.164062 -0.945312 3.234375 -0.96875 3.296875 -0.96875 C 3.378906 -0.96875 3.445312 -0.9375 3.5 -0.875 C 3.550781 -0.820312 3.578125 -0.757812 3.578125 -0.6875 C 3.578125 -0.59375 3.53125 -0.503906 3.4375 -0.421875 C 3.300781 -0.285156 3.117188 -0.164062 2.890625 -0.0625 C 2.660156 0.03125 2.429688 0.078125 2.203125 0.078125 C 1.816406 0.078125 1.476562 0 1.1875 -0.15625 C 0.894531 -0.320312 0.671875 -0.550781 0.515625 -0.84375 C 0.359375 -1.132812 0.28125 -1.460938 0.28125 -1.828125 C 0.28125 -2.222656 0.359375 -2.566406 0.515625 -2.859375 C 0.679688 -3.160156 0.894531 -3.390625 1.15625 -3.546875 C 1.425781 -3.710938 1.71875 -3.796875 2.03125 -3.796875 C 2.332031 -3.796875 2.613281 -3.71875 2.875 -3.5625 C 3.144531 -3.40625 3.359375 -3.191406 3.515625 -2.921875 C 3.679688 -2.648438 3.765625 -2.34375 3.765625 -2 Z M 2.03125 -3.171875 C 1.757812 -3.171875 1.523438 -3.097656 1.328125 -2.953125 C 1.140625 -2.804688 1.015625 -2.578125 0.953125 -2.265625 L 3.046875 -2.265625 L 3.046875 -2.3125 C 3.023438 -2.570312 2.910156 -2.78125 2.703125 -2.9375 C 2.503906 -3.09375 2.28125 -3.171875 2.03125 -3.171875 Z M 2.03125 -3.171875 "/></g></g></g><g fill="#d9d9d9" fill-opacity="1"><g transform="translate(98.051964, 53.283814)"><g><path d="M 0.296875 -0.578125 C 0.253906 -0.648438 0.234375 -0.710938 0.234375 -0.765625 C 0.234375 -0.867188 0.28125 -0.953125 0.375 -1.015625 C 0.425781 -1.046875 0.484375 -1.0625 0.546875 -1.0625 C 0.628906 -1.0625 0.703125 -1.023438 0.765625 -0.953125 C 0.910156 -0.796875 1.0625 -0.675781 1.21875 -0.59375 C 1.382812 -0.507812 1.582031 -0.46875 1.8125 -0.46875 C 1.988281 -0.476562 2.144531 -0.519531 2.28125 -0.59375 C 2.425781 -0.675781 2.5 -0.804688 2.5 -0.984375 C 2.5 -1.140625 2.425781 -1.257812 2.28125 -1.34375 C 2.144531 -1.425781 1.941406 -1.503906 1.671875 -1.578125 C 1.410156 -1.648438 1.191406 -1.722656 1.015625 -1.796875 C 0.835938 -1.878906 0.6875 -1.992188 0.5625 -2.140625 C 0.445312 -2.296875 0.390625 -2.492188 0.390625 -2.734375 C 0.390625 -2.941406 0.445312 -3.125 0.5625 -3.28125 C 0.6875 -3.445312 0.847656 -3.570312 1.046875 -3.65625 C 1.253906 -3.75 1.472656 -3.796875 1.703125 -3.796875 C 1.929688 -3.796875 2.15625 -3.753906 2.375 -3.671875 C 2.601562 -3.585938 2.789062 -3.457031 2.9375 -3.28125 C 2.988281 -3.21875 3.015625 -3.148438 3.015625 -3.078125 C 3.015625 -3.003906 2.976562 -2.929688 2.90625 -2.859375 C 2.863281 -2.816406 2.804688 -2.796875 2.734375 -2.796875 C 2.648438 -2.796875 2.582031 -2.820312 2.53125 -2.875 C 2.425781 -2.988281 2.300781 -3.078125 2.15625 -3.140625 C 2.007812 -3.203125 1.851562 -3.234375 1.6875 -3.234375 C 1.5 -3.234375 1.34375 -3.195312 1.21875 -3.125 C 1.09375 -3.050781 1.03125 -2.925781 1.03125 -2.75 C 1.039062 -2.582031 1.113281 -2.457031 1.25 -2.375 C 1.394531 -2.300781 1.609375 -2.226562 1.890625 -2.15625 C 2.140625 -2.082031 2.347656 -2.007812 2.515625 -1.9375 C 2.679688 -1.863281 2.820312 -1.75 2.9375 -1.59375 C 3.050781 -1.445312 3.109375 -1.253906 3.109375 -1.015625 C 3.109375 -0.796875 3.039062 -0.601562 2.90625 -0.4375 C 2.78125 -0.269531 2.613281 -0.140625 2.40625 -0.046875 C 2.207031 0.0351562 1.992188 0.078125 1.765625 0.078125 C 1.460938 0.078125 1.179688 0.0234375 0.921875 -0.078125 C 0.671875 -0.179688 0.460938 -0.347656 0.296875 -0.578125 Z M 0.296875 -0.578125 "/></g></g></g><g fill="#d9d9d9" fill-opacity="1"><g transform="translate(106.063724, 53.283814)"><g><path d="M 0.296875 -0.578125 C 0.253906 -0.648438 0.234375 -0.710938 0.234375 -0.765625 C 0.234375 -0.867188 0.28125 -0.953125 0.375 -1.015625 C 0.425781 -1.046875 0.484375 -1.0625 0.546875 -1.0625 C 0.628906 -1.0625 0.703125 -1.023438 0.765625 -0.953125 C 0.910156 -0.796875 1.0625 -0.675781 1.21875 -0.59375 C 1.382812 -0.507812 1.582031 -0.46875 1.8125 -0.46875 C 1.988281 -0.476562 2.144531 -0.519531 2.28125 -0.59375 C 2.425781 -0.675781 2.5 -0.804688 2.5 -0.984375 C 2.5 -1.140625 2.425781 -1.257812 2.28125 -1.34375 C 2.144531 -1.425781 1.941406 -1.503906 1.671875 -1.578125 C 1.410156 -1.648438 1.191406 -1.722656 1.015625 -1.796875 C 0.835938 -1.878906 0.6875 -1.992188 0.5625 -2.140625 C 0.445312 -2.296875 0.390625 -2.492188 0.390625 -2.734375 C 0.390625 -2.941406 0.445312 -3.125 0.5625 -3.28125 C 0.6875 -3.445312 0.847656 -3.570312 1.046875 -3.65625 C 1.253906 -3.75 1.472656 -3.796875 1.703125 -3.796875 C 1.929688 -3.796875 2.15625 -3.753906 2.375 -3.671875 C 2.601562 -3.585938 2.789062 -3.457031 2.9375 -3.28125 C 2.988281 -3.21875 3.015625 -3.148438 3.015625 -3.078125 C 3.015625 -3.003906 2.976562 -2.929688 2.90625 -2.859375 C 2.863281 -2.816406 2.804688 -2.796875 2.734375 -2.796875 C 2.648438 -2.796875 2.582031 -2.820312 2.53125 -2.875 C 2.425781 -2.988281 2.300781 -3.078125 2.15625 -3.140625 C 2.007812 -3.203125 1.851562 -3.234375 1.6875 -3.234375 C 1.5 -3.234375 1.34375 -3.195312 1.21875 -3.125 C 1.09375 -3.050781 1.03125 -2.925781 1.03125 -2.75 C 1.039062 -2.582031 1.113281 -2.457031 1.25 -2.375 C 1.394531 -2.300781 1.609375 -2.226562 1.890625 -2.15625 C 2.140625 -2.082031 2.347656 -2.007812 2.515625 -1.9375 C 2.679688 -1.863281 2.820312 -1.75 2.9375 -1.59375 C 3.050781 -1.445312 3.109375 -1.253906 3.109375 -1.015625 C 3.109375 -0.796875 3.039062 -0.601562 2.90625 -0.4375 C 2.78125 -0.269531 2.613281 -0.140625 2.40625 -0.046875 C 2.207031 0.0351562 1.992188 0.078125 1.765625 0.078125 C 1.460938 0.078125 1.179688 0.0234375 0.921875 -0.078125 C 0.671875 -0.179688 0.460938 -0.347656 0.296875 -0.578125 Z M 0.296875 -0.578125 "/></g></g></g></svg>